<svg id="Layer_1" height="512" viewBox="0 0 64 64" width="512" xmlns="http://www.w3.org/2000/svg" data-name="Layer 1"><path d="m6 21h52a1 1 0 0 1 1 1v36a0 0 0 0 1 0 0h-54a0 0 0 0 1 0 0v-36a1 1 0 0 1 1-1z" fill="#ccedff"/><path d="m5 22v36h2v-34a1 1 0 0 1 1-1h48a1 1 0 0 1 1 1v34h2v-36a1 1 0 0 0 -1-1h-52a1 1 0 0 0 -1 1z" fill="#bde8ff"/><rect fill="#2199ea" height="28" opacity=".2" rx="1" width="27" x="29" y="26"/><path d="m14.4 36.55a1 1 0 0 0 1.2 0l5-3.75a1 1 0 0 0 -.6-1.8h-1a1 1 0 0 1 -1-1v-9h-6v9a1 1 0 0 1 -1 1h-1a1 1 0 0 0 -.6 1.8z" fill="#2199ea" opacity=".2"/><path d="m13 40a1 1 0 0 0 -1 1v1h-3a1 1 0 0 0 -1 1v5a1 1 0 0 0 1 1h3v1a1 1 0 0 0 1 1v3.5a1.5 1.5 0 0 0 3 0v-3.5l8 4v-19l-8 4z" fill="#2199ea" opacity=".2"/><rect fill="#fff" height="28" rx="1" width="27" x="30" y="25"/><path d="m4 62h56a2 2 0 0 0 2-2v-2h-60v2a2 2 0 0 0 2 2z" fill="#2199ea"/><path d="m60 60h-56a2 2 0 0 1 -2-2v2a2 2 0 0 0 2 2h56a2 2 0 0 0 2-2v-2a2 2 0 0 1 -2 2z" fill="#148cde"/><path d="m13 21v8a1 1 0 0 1 -1 1h-1a1 1 0 0 0 -.6 1.8l5 3.75a1 1 0 0 0 1.2 0l5-3.75a1 1 0 0 0 -.6-1.8h-1a1 1 0 0 1 -1-1v-8z" fill="#ffb26c"/><circle cx="16" cy="10" fill="#ffb26c" r="8"/><path d="m16 2a8 8 0 1 0 8 8 8 8 0 0 0 -8-8zm0 14a6 6 0 1 1 6-6 6 6 0 0 1 -6 6z" fill="#ffa154"/><path d="m15.5 55a1.5 1.5 0 0 0 1.5-1.5v-3.5h-3v3.5a1.5 1.5 0 0 0 1.5 1.5z" fill="#808080"/><path d="m9 42v5a1 1 0 0 0 1 1h3v-7h-3a1 1 0 0 0 -1 1z" fill="#fff"/><path d="m11 41v3a2 2 0 0 1 -2 2v1a1 1 0 0 0 1 1h3v-7z" fill="#f2f2f2"/><path d="m16 50h1v-11h-3a1 1 0 0 0 -1 1v9a1 1 0 0 0 1 1z" fill="#f77f1b"/><path d="m25 54v-19l-8 4v11z" fill="#f77f1b"/><path d="m25 50-2.021-.674a5.82 5.82 0 0 1 -3.979-5.521v-5.805l-2 1v11l8 4z" fill="#ed7a1a"/><circle cx="49" cy="42.5" fill="#ffddd2" r="3.5"/><path d="m43 52v1h12v-1a5.977 5.977 0 0 0 -1.926-4.4 5.993 5.993 0 0 0 -10.074 4.4z" fill="#ffddd2"/><path d="m49 45a3.5 3.5 0 0 1 -3.46-3 3.441 3.441 0 0 0 -.04.5 3.5 3.5 0 0 0 7 0 3.441 3.441 0 0 0 -.04-.5 3.5 3.5 0 0 1 -3.46 3z" fill="#ffd5c9"/><path d="m53.074 47.6a5.993 5.993 0 0 0 -10.074 4.4v1h.025a5.995 5.995 0 0 1 11.948 0h.027v-1a5.977 5.977 0 0 0 -1.926-4.4z" fill="#ffd5c9"/><g fill="#ffb26c"><circle cx="30" cy="5" r="3"/><circle cx="40" cy="12" r="3"/><rect height="2" rx="1" width="2" x="36" y="4"/><rect height="2" rx="1" width="2" x="40" y="4"/><rect height="2" rx="1" width="2" x="45" y="11"/><rect height="2" rx="1" width="2" x="49" y="11"/></g><path d="m17 4.184v-1.184h-2v1.184a3 3 0 0 0 -2 2.816v1a3 3 0 0 0 3 3 1 1 0 0 1 1 1v1a1 1 0 0 1 -2 0v-1h-2v1a3 3 0 0 0 2 2.816v1.184h2v-1.184a3 3 0 0 0 2-2.816v-1a3 3 0 0 0 -3-3 1 1 0 0 1 -1-1v-1a1 1 0 0 1 2 0v1h2v-1a3 3 0 0 0 -2-2.816z" fill="#f77f1b"/><path d="m27 23v7a1 1 0 0 0 1 1 1 1 0 0 0 1-1v-5a1 1 0 0 1 1-1h9a1 1 0 0 0 1-1 1 1 0 0 0 -1-1h-11a1 1 0 0 0 -1 1z" fill="#fff"/><path d="m28 47a1 1 0 0 0 -1 1v7a1 1 0 0 0 1 1h11a1 1 0 0 0 1-1 1 1 0 0 0 -1-1h-9a1 1 0 0 1 -1-1v-5a1 1 0 0 0 -1-1z" fill="#fff"/><rect fill="#fff" height="2" rx="1" width="2" x="42" y="22"/><rect fill="#91d8ff" height="2" rx="1" transform="matrix(.781 -.625 .625 .781 -10.097 37.213)" width="8.816" x="43.593" y="32"/><rect fill="#91d8ff" height="2" rx="1" transform="matrix(.958 -.288 .288 .958 -9.465 12.552)" width="6.449" x="34.776" y="37.5"/><circle cx="33" cy="40" fill="#2199ea" r="3"/><circle cx="43" cy="37" fill="#2199ea" r="3"/><circle cx="53" cy="29" fill="#2199ea" r="3"/></svg>