<svg id="Слой_1" data-name="Слой 1" xmlns="http://www.w3.org/2000/svg" xmlns:xlink="http://www.w3.org/1999/xlink" viewBox="0 0 823.06 521.75"><defs><style>.cls-1{fill:url(#linear-gradient);}.cls-2{fill:url(#linear-gradient-2);}.cls-3{fill:url(#linear-gradient-3);}.cls-4{fill:#fff;}.cls-5{fill:url(#linear-gradient-4);}.cls-6{fill:url(#linear-gradient-5);}.cls-7{fill:#609a3e;}.cls-8{fill:url(#linear-gradient-6);}.cls-9{fill:url(#linear-gradient-7);}.cls-10{fill:#aebecc;}.cls-11{fill:#dedede;}.cls-12{fill:url(#linear-gradient-8);}.cls-13{fill:url(#linear-gradient-9);}.cls-14{fill:#949494;}.cls-15{fill:#e3e3e3;}.cls-16{fill:#f5f7ff;}.cls-17{fill:url(#linear-gradient-10);}.cls-18{fill:url(#linear-gradient-11);}.cls-19{fill:#e0e0e0;}.cls-20{fill:#4aafff;}.cls-21{fill:#eea886;}.cls-22{fill:#db9c7c;}.cls-23{fill:#323657;}.cls-24{fill:#ead8cf;}.cls-25{fill:#da9b5b;}.cls-26{fill:#424773;}.cls-27{fill:#292c47;}.cls-28{fill:#e2d2ca;}.cls-29{fill:#efaa88;}.cls-30{fill:#1a598c;}.cls-31{fill:#2273b5;}.cls-32{fill:#5caef2;}.cls-33{fill:#78c2ff;}.cls-34{fill:#275070;}.cls-35{fill:url(#linear-gradient-12);}.cls-36{fill:#2d3038;}.cls-37{fill:#1d3b54;}.cls-38{fill:#122536;}.cls-39{fill:#172f42;}.cls-40{fill:#285173;}.cls-41{fill:#fccca2;}.cls-42{fill:#e54242;}.cls-43{fill:#b8b8b8;opacity:0.1;}.cls-44{fill:#869ac2;opacity:0.3;}.cls-45{fill:#3f444f;}.cls-46{fill:#1487e3;}.cls-47{fill:#ffc055;}.cls-48{fill:#ffc455;}.cls-49{fill:#434343;}.cls-50{fill:url(#linear-gradient-13);}</style><linearGradient id="linear-gradient" x1="-530.55" y1="94.05" x2="-112.75" y2="511.85" gradientTransform="matrix(-1, 0, 0, 1, 46.61, 1.02)" gradientUnits="userSpaceOnUse"><stop offset="0" stop-color="#40d5e6"/><stop offset="1" stop-color="#57f"/></linearGradient><linearGradient id="linear-gradient-2" x1="345.29" y1="23.33" x2="235.92" y2="235.92" gradientTransform="translate(186.77 -155.73) rotate(45)" xlink:href="#linear-gradient"/><linearGradient id="linear-gradient-3" x1="1261.5" y1="26.04" x2="1054.16" y2="429.04" gradientTransform="matrix(-1, 0, 0, 1, 1197.65, 0)" xlink:href="#linear-gradient"/><linearGradient id="linear-gradient-4" x1="694.93" y1="213.38" x2="765.35" y2="213.38" gradientTransform="matrix(1, 0, 0, 1, 0, 0)" xlink:href="#linear-gradient"/><linearGradient id="linear-gradient-5" x1="3271.73" y1="-4220.86" x2="3271.73" y2="-4293.43" gradientTransform="translate(-4367.32 1981.83) rotate(33.63)" xlink:href="#linear-gradient"/><linearGradient id="linear-gradient-6" x1="-759.08" y1="1328.48" x2="-759.08" y2="1225.37" gradientTransform="translate(966.38 -1160.84) rotate(-10.45)" gradientUnits="userSpaceOnUse"><stop offset="0.01" stop-color="#3c6127"/><stop offset="1" stop-color="#639c38"/></linearGradient><linearGradient id="linear-gradient-7" x1="-5697.68" y1="3007.27" x2="-5697.68" y2="2925.69" gradientTransform="translate(2353.72 -5882.5) rotate(-45.28)" xlink:href="#linear-gradient-6"/><linearGradient id="linear-gradient-8" x1="447.51" y1="244.47" x2="714.08" y2="244.47" gradientTransform="translate(1161.59 488.94) rotate(-180)" gradientUnits="userSpaceOnUse"><stop offset="0" stop-color="#fff"/><stop offset="1" stop-color="#f2f5ff"/></linearGradient><linearGradient id="linear-gradient-9" x1="757.38" y1="159.28" x2="425.13" y2="159.28" gradientTransform="translate(1161.59 318.57) rotate(-180)" gradientUnits="userSpaceOnUse"><stop offset="0" stop-color="#ff9f55"/><stop offset="1" stop-color="#ffd255"/></linearGradient><linearGradient id="linear-gradient-10" x1="388.9" y1="266.03" x2="388.9" y2="266.03" gradientTransform="matrix(1, 0, 0, 1, 0, 0)" xlink:href="#linear-gradient-9"/><linearGradient id="linear-gradient-11" x1="402.31" y1="289.41" x2="402.31" y2="289.41" gradientTransform="matrix(1, 0, 0, 1, 0, 0)" xlink:href="#linear-gradient-9"/><linearGradient id="linear-gradient-12" x1="-11850.21" y1="354.24" x2="-11764.07" y2="354.24" gradientTransform="matrix(-0.99, 0.17, 0.17, 0.99, -10969.1, 1986.89)" xlink:href="#linear-gradient-9"/><linearGradient id="linear-gradient-13" x1="-616.84" y1="474.75" x2="-242.82" y2="474.75" gradientTransform="matrix(-1, 0, 0, 1, 246.07, 0)" xlink:href="#linear-gradient"/></defs><polygon class="cls-1" points="0 0 0 520.73 822.76 521.71 822.76 0.98 0 0"/><circle class="cls-2" cx="281.37" cy="147.58" r="73.25" transform="translate(-21.94 243.2) rotate(-45)"/><path class="cls-3" d="M0,134.87V406.6A140.51,140.51,0,1,0,0,134.87Z" transform="translate(0 1.02)"/><path class="cls-4" d="M338.09,0s-49.64,71.91,46.73,104.52S548.69,224.3,470.5,327.39,237.76,454.47,237.76,520.73l585-.77V-.77Z" transform="translate(0 1.02)"/><path class="cls-5" d="M733.3,255.74c-12.39,10.22-24.77,17.41-32,14.24a7.48,7.48,0,0,1-1.21-.67c-4.21-2.8-6.21-10-4.64-23.45,4.17-35.82,25.85-43.24,45.67-55.54,19.58-12.14,10-33.75,9.72-34.3C783.18,203.73,754.3,238.39,733.3,255.74Z" transform="translate(0 1.02)"/><path class="cls-6" d="M701.31,270a7.48,7.48,0,0,1-1.21-.67c2-7.06,6.71-20.79,14-28.61A133.94,133.94,0,0,1,725.84,230c8.1-6.82,16.48-13.89,21.73-23.73l1.18.62c-5.37,10.07-13.85,17.22-22.06,24.13a132.86,132.86,0,0,0-11.64,10.61C708,249.24,703.3,263.09,701.31,270Z" transform="translate(0 1.02)"/><path class="cls-7" d="M467,205.68c-13,16.91-.18,68.61,1.79,76.17.17.6.25.92.25.92s-1-.57-2.71-1.65C455.07,274,413,244.77,422.37,211.3c10.78-38.55-11.42-31-27.13-67.24s20-58.53,20-58.53C456.72,117.05,481,187.42,467,205.68Z" transform="translate(0 1.02)"/><path class="cls-8" d="M469,282.77s-1-.57-2.71-1.65L465,279.05c-8.63-13.61-19.13-32.17-20.15-43.25-.62-6.68-.3-14.35,0-21.76.65-15.55,1.33-31.63-6.32-40.54C426.83,159.9,426.44,137,426.43,136l1.72,0c0,.23.39,23.31,11.68,36.43,8.11,9.41,7.41,25.83,6.74,41.72-.32,7.35-.63,15,0,21.53,1,10.9,12,30.42,22.22,46.21C468.94,282.45,469,282.77,469,282.77Z" transform="translate(0 1.02)"/><path class="cls-7" d="M470,248c-4.68,18.41,5.25,29.55,8.47,32.59a12.72,12.72,0,0,0,1,.84,16.48,16.48,0,0,1-2.9-.18c-14-2-50-18.37-54.19-41.9-4.56-25.4-25.35-11.32-42.52-32.48-23.34-28.74,6.61-52.09,6.61-52.09-6.41,12.14,13.11,41.9,37.75,47.84S475.5,226.18,470,248Z" transform="translate(0 1.02)"/><path class="cls-9" d="M445.55,246.45c2.87,8.92,5.57,17.34,13,21,6.47,3.21,13.6,8.2,19.89,13.12a12.72,12.72,0,0,0,1,.84,16.48,16.48,0,0,1-2.9-.18A118.47,118.47,0,0,0,457.76,269c-8.05-4-10.86-12.76-13.83-22-3.38-10.51-6.87-21.39-18.4-26.25-22-9.27-33.32-22-33.44-22.12l1.29-1.14c.11.13,11.16,12.58,32.81,21.69C438.46,224.31,442.07,235.56,445.55,246.45Z" transform="translate(0 1.02)"/><rect class="cls-10" x="564.05" y="324.32" width="33.49" height="101.73" transform="translate(1161.59 751.39) rotate(180)"/><rect class="cls-11" x="436.19" y="169.3" width="289.22" height="204.03" rx="14.71" transform="translate(1161.59 543.64) rotate(180)"/><rect class="cls-12" x="447.51" y="147.58" width="266.57" height="193.77" transform="translate(1161.59 489.95) rotate(180)"/><rect class="cls-13" x="447.51" y="147.58" width="266.57" height="23.4" transform="translate(1161.59 319.58) rotate(180)"/><path class="cls-14" d="M571.47,356a9.33,9.33,0,1,0,9.33-9.32A9.32,9.32,0,0,0,571.47,356Z" transform="translate(0 1.02)"/><rect class="cls-15" x="505.45" y="423.23" width="150.68" height="7.68"/><rect class="cls-16" x="458.65" y="155.88" width="38.02" height="8.84" rx="3.18"/><path class="cls-17" d="M388.9,266" transform="translate(0 1.02)"/><path class="cls-18" d="M402.31,289.41" transform="translate(0 1.02)"/><rect class="cls-19" x="455.92" y="282.89" width="9.36" height="51.04"/><rect class="cls-19" x="476.59" y="268.05" width="9.36" height="65.88"/><rect class="cls-19" x="497.26" y="293.3" width="9.36" height="40.63"/><rect class="cls-19" x="517.94" y="273.62" width="9.36" height="60.31"/><rect class="cls-19" x="538.61" y="259.78" width="9.36" height="74.15"/><rect class="cls-19" x="559.28" y="286.03" width="9.36" height="47.9"/><rect class="cls-20" x="455.92" y="296.98" width="9.36" height="36.95"/><rect class="cls-20" x="476.59" y="286.24" width="9.36" height="47.69"/><rect class="cls-20" x="497.26" y="304.52" width="9.36" height="29.41"/><rect class="cls-20" x="517.94" y="290.27" width="9.36" height="43.66"/><rect class="cls-20" x="538.61" y="280.25" width="9.36" height="53.68"/><rect class="cls-20" x="559.28" y="299.25" width="9.36" height="34.68"/><path class="cls-21" d="M415.74,361.08a4.55,4.55,0,0,1,.61,1.62,7.92,7.92,0,0,0,.75,1.9,18.73,18.73,0,0,1,.91,3.18,15,15,0,0,0-.43,2.13c.07.46.33,1.37-.08,1.43s-.88-.68-.88-.68a.6.6,0,0,1-.31.58,1,1,0,0,1-1,0s-.25.46-.57.53a2.13,2.13,0,0,0-1.82.11,1,1,0,0,1-.87-.54s-.78.16-1-.21a3.26,3.26,0,0,1-.28-1.08,12.72,12.72,0,0,1,1-5.43,4.82,4.82,0,0,0-.25-4.22Z" transform="translate(0 1.02)"/><path class="cls-22" d="M416.73,370.38s.07-2.67-.63-3.23-.78.39-.78.39.09-1-.67-1.08-.8,1-.8,1a.74.74,0,0,0-.93-.58c-.81.15-.61,1.09-.61,1.09s-.77-.92-1.27,0a3.92,3.92,0,0,0,0,3.24s.24.4,1,.21a1.06,1.06,0,0,0,1.66.29s1.17.64,1.6-.39A1,1,0,0,0,416.73,370.38Z" transform="translate(0 1.02)"/><path class="cls-23" d="M424.78,322.73s-4.56,15.19-6.1,20.79c-.48,1.76-1.65,18.54-1.86,19.22s-6,1.6-6,1.6.7-21,.77-22.14,6.38-24.59,8.21-25.43c1.38-.62,2.1-.1,3.84,1.18C426.08,319.76,424.78,322.73,424.78,322.73Z" transform="translate(0 1.02)"/><path class="cls-24" d="M449.12,326.8l1.18-.44s-1.47-3.44-2.11-3.36a16.9,16.9,0,0,0-1.66.34Z" transform="translate(0 1.02)"/><path class="cls-25" d="M449.39,327.39c-.15-.11-2.5-4.62-2.5-4.62l-5,.68,2.72,5.35Z" transform="translate(0 1.02)"/><path class="cls-26" d="M421.08,426.45s-.42,2.88-.47,3.31-4.62-.25-4.62-.25l-.37-3.44S420.51,426,421.08,426.45Z" transform="translate(0 1.02)"/><path class="cls-27" d="M420.66,429.4a12.47,12.47,0,0,0,2.85,2.49c1.4.76,3.6,1.06,4.43,1.84.59.57,2.17,3-3.64,3s-8.62.34-9.25-.59.91-6.9.91-6.9A12.19,12.19,0,0,0,420.66,429.4Z" transform="translate(0 1.02)"/><path class="cls-26" d="M453.82,426.45s-.42,2.88-.47,3.31-4.62-.25-4.62-.25l-.37-3.44S453.25,426,453.82,426.45Z" transform="translate(0 1.02)"/><path class="cls-27" d="M453.4,429.4a12.47,12.47,0,0,0,2.85,2.49c1.4.76,6.55,1.38,7.38,2.16.6.57,1.59,2.85-6.59,2.64-5.81-.16-8.62.34-9.24-.59s.9-6.9.9-6.9S450,429.73,453.4,429.4Z" transform="translate(0 1.02)"/><path class="cls-27" d="M424.86,352.35s-4.29,6.82-4,13-1.56,12.9-2.2,19.34c-.72,7.18-3.67,24.18-3.77,28s.45,16.11.45,16.11l5.9.13s4.94-29.72,6.22-32.75,7.64-24.65,7.85-27.08S424.86,352.35,424.86,352.35Z" transform="translate(0 1.02)"/><path class="cls-27" d="M447.46,353.27s3.24,16.9,3.67,20.68.71,18.26.92,20.62,2,30.8,2.57,34.37h-7.53s-5.79-20.72-5.79-30.53-4.46-21.32-7.34-27.78S424.47,364,422.7,352C422.7,352,445.07,349.46,447.46,353.27Z" transform="translate(0 1.02)"/><path class="cls-21" d="M432,295s5.76-2.15,8.42,2.24,2.4,13.17-.51,14.25-7.27.51-8.75-2.23-2.83-6.72-2.77-9.37S430.51,295.76,432,295Z" transform="translate(0 1.02)"/><path class="cls-21" d="M439.32,311.68a5,5,0,0,0,.15,2.32c.4.77-7.46.79-7.46.79a52.14,52.14,0,0,0-1.85-7.7C429,303.57,439.32,311.68,439.32,311.68Z" transform="translate(0 1.02)"/><path class="cls-23" d="M430.16,307.09s.54.9,2.76.55,4.92-3.29,5.84-3.62.93-.86.93-.86l.58.84,1,.07s-.9-2.64.45-3.72-1.4-8.53-8.51-6.05c0,0-5.45,1.51-5.25,4.61S428.94,305.55,430.16,307.09Z" transform="translate(0 1.02)"/><path class="cls-28" d="M439.94,313.91s0-1.47-.69-1.61-7.32-.78-8.14-.46v1.71S432.68,314.51,439.94,313.91Z" transform="translate(0 1.02)"/><path class="cls-21" d="M439.55,302c-.13-.52-1.45-2-2-.42s.77,3.74,1.48,3.56S439.86,303.35,439.55,302Z" transform="translate(0 1.02)"/><path class="cls-23" d="M466.39,331.21h0S466.43,331.23,466.39,331.21Z" transform="translate(0 1.02)"/><path class="cls-23" d="M430.39,295.51s-7.35.58-.23,11.58Z" transform="translate(0 1.02)"/><path class="cls-29" d="M480.46,297.75a1.58,1.58,0,0,0-1-1,2.58,2.58,0,0,0-1.18-.75.31.31,0,0,0-.05-.1c.52-.56,2-1.61,2.12-1.81s.08-.27-.21-.43-2.72,1.48-3.54,2l-.4.28a6.16,6.16,0,0,0-1.08.74l-.12.14a32.68,32.68,0,0,0-1.38,4.72l1.72.77,1.66,1.4s1.94-1.6,2.43-2.1a5.14,5.14,0,0,0,.87-1.34,1.64,1.64,0,0,1,.16-.24c.22-.31.57-.71.57-.71a3,3,0,0,0,.26-.83C481.24,298.05,480.46,297.75,480.46,297.75Z" transform="translate(0 1.02)"/><path class="cls-23" d="M451,316.13c-4.57-.61-11-2.22-11-2.22l-8.83-.36s-8.1,1.78-11.3,3.22c-.3.14-.3,7.23-1.13,9.1l2.64,5.58s1.53,11.06,1.85,16c.15,2.25-3.15,21.17-3.15,21.17a60.62,60.62,0,0,0,9.56,1.7c6,.67,21.09-.24,21.18-.95s-2.92-26.51-3.05-27.84c-.2-2.05.71-12.95.71-12.95,1.39-1.08,13.61-6.75,16.94-9.7.89-.79,4.66-4.46,5.73-5.73,3.79-4.48,6.9-8.32,7.27-9.15.43-.47-4.11-2.94-4.53-3.08s-5.48,6.52-7.45,8.65a55.72,55.72,0,0,1-4.54,3.61S453.82,316.29,451,316.13Z" transform="translate(0 1.02)"/><rect class="cls-19" x="455.92" y="247.08" width="73.57" height="5.42" rx="0.97"/><rect class="cls-19" x="455.92" y="235.55" width="46.89" height="5.42" rx="0.97"/><rect class="cls-19" x="455.92" y="224.74" width="58.59" height="5.42" rx="0.97"/><rect class="cls-19" x="455.92" y="213.68" width="86.12" height="5.42" rx="0.97"/><rect class="cls-19" x="455.92" y="203.19" width="31.34" height="5.42" rx="0.97"/><path class="cls-20" d="M679.46,243.39a31.87,31.87,0,1,0-21.47-60c-.67.24-1.34.5-2,.78a32.28,32.28,0,0,0-7.93,4.94,31.88,31.88,0,0,0,31.39,54.3Zm-33.24-22a23.92,23.92,0,0,1,7-26.26,23.46,23.46,0,0,1,6-3.7c.48-.21,1-.41,1.49-.59a23.9,23.9,0,1,1-14.46,30.55Z" transform="translate(0 1.02)"/><path class="cls-30" d="M675.85,190.57l2.37-7.62a32,32,0,0,1,22.37,29.48l-8,.23a24,24,0,0,0-16.77-22.09Z" transform="translate(0 1.02)"/><path class="cls-31" d="M659.19,191.47,656,184.15c.65-.28,1.32-.54,2-.78a31.76,31.76,0,0,1,20.23-.42l-2.37,7.62a23.78,23.78,0,0,0-15.17.31C660.17,191.06,659.67,191.26,659.19,191.47Z" transform="translate(0 1.02)"/><path class="cls-32" d="M648.07,189.09a32.28,32.28,0,0,1,7.93-4.94l3.19,7.32a23.46,23.46,0,0,0-6,3.7Z" transform="translate(0 1.02)"/><rect class="cls-33" x="601.55" y="203.61" width="21.45" height="4.58" rx="1.69"/><rect class="cls-20" x="580.52" y="225.13" width="21.45" height="4.58" rx="1.69"/><rect class="cls-31" x="603.7" y="247.5" width="21.45" height="4.58" rx="1.69"/><rect class="cls-30" x="640.21" y="262.61" width="21.45" height="4.58" rx="1.69"/><polygon class="cls-20" points="589.03 329.21 588.1 328.23 612.08 305.6 636.36 310.86 659.54 284.43 679.76 285.56 695.51 263.84 696.6 264.64 680.42 286.96 660.12 285.81 636.85 312.35 612.49 307.07 589.03 329.21"/><path class="cls-4" d="M640.12,309.83a3.6,3.6,0,1,1-4.28-2.76A3.6,3.6,0,0,1,640.12,309.83Z" transform="translate(0 1.02)"/><path class="cls-20" d="M637.51,314.77a4.28,4.28,0,1,1,3.27-5.08A4.28,4.28,0,0,1,637.51,314.77Zm-1.53-7a2.93,2.93,0,1,0,3.48,2.24A2.93,2.93,0,0,0,636,307.73Z" transform="translate(0 1.02)"/><path class="cls-4" d="M663.35,283.57a3.61,3.61,0,1,1-4.29-2.76A3.61,3.61,0,0,1,663.35,283.57Z" transform="translate(0 1.02)"/><path class="cls-20" d="M660.73,288.51a4.28,4.28,0,1,1,3.28-5.09A4.28,4.28,0,0,1,660.73,288.51Zm-1.53-7a2.93,2.93,0,1,0,3.49,2.24A2.93,2.93,0,0,0,659.2,281.47Z" transform="translate(0 1.02)"/><path class="cls-4" d="M683.42,284.37a3.61,3.61,0,1,1-4.29-2.76A3.61,3.61,0,0,1,683.42,284.37Z" transform="translate(0 1.02)"/><path class="cls-20" d="M680.8,289.31a4.28,4.28,0,1,1,3.28-5.08A4.29,4.29,0,0,1,680.8,289.31Zm-1.52-7a2.93,2.93,0,1,0,3.48,2.24A2.92,2.92,0,0,0,679.28,282.27Z" transform="translate(0 1.02)"/><path class="cls-4" d="M615.79,304.89a3.6,3.6,0,1,1-4.28-2.76A3.6,3.6,0,0,1,615.79,304.89Z" transform="translate(0 1.02)"/><path class="cls-20" d="M613.18,309.84a4.28,4.28,0,1,1,3.27-5.09A4.28,4.28,0,0,1,613.18,309.84Zm-1.53-7a2.93,2.93,0,1,0,3.48,2.25A2.94,2.94,0,0,0,611.65,302.79Z" transform="translate(0 1.02)"/><rect class="cls-19" x="608.67" y="320.07" width="14.75" height="2.84"/><rect class="cls-19" x="618.92" y="290.92" width="14.75" height="2.84"/><rect class="cls-19" x="649.52" y="311.23" width="14.75" height="2.84"/><rect class="cls-19" x="662.75" y="271.34" width="14.75" height="2.84"/><rect class="cls-19" x="684.18" y="295.11" width="14.75" height="2.84"/><path class="cls-34" d="M738.62,331.37S733.16,319,739.5,320a23.17,23.17,0,0,1,4.37,5.42c1.67,2.75,5.16,10,5,12.5s-1.88,4.3-3.77,8.26c0,0-3.93,7.34-4.1,8.23l-4.16-2.16s3.52-7,6-13.2Z" transform="translate(0 1.02)"/><rect class="cls-35" x="687.52" y="347.02" width="84.92" height="14.44" transform="translate(69.82 -116.49) rotate(9.66)"/><rect class="cls-36" x="683.62" y="341.26" width="4.54" height="10.96" transform="translate(67.96 -109.23) rotate(9.67)"/><path class="cls-21" d="M707,436.24h-1s.35-3.9-.61-3.94-3.32,3.17-4.73,3.67-8.67.91-8.7-.42,2.78-1.87,3.66-2.25,5.15-4.55,5.92-5,2.06-3.95,2.06-3.95l4.05-.18s.23,3.23.48,4.93a15.53,15.53,0,0,1,.16,1.6A29.47,29.47,0,0,1,707,436.24Z" transform="translate(0 1.02)"/><path class="cls-21" d="M733.08,435.47h-.86v-3.63c-.72.06-3.12,2.34-3.87,3s-1.76.63-4.9.83-3.43-1.68-2.93-2.32,2.1-.92,2.93-1.32,4.13-4.11,5-5a9.22,9.22,0,0,0,1.41-3.39l3.66.32a22.46,22.46,0,0,0,.4,4.23h0c0,.17.07.33.12.49C734.59,430.71,733.08,435.47,733.08,435.47Z" transform="translate(0 1.02)"/><path class="cls-37" d="M719.53,353.32a36.57,36.57,0,0,0-1.51,4.1c-.12.83-3.37,8.67-4.3,13.95-.56,3.17-2.11,13.07-2.24,14.33-.21,2.15-1.23,6.91-1.39,9.11-.08,1.23-6.14,20.11-7.61,30a18.29,18.29,0,0,0,6.1-.18A103.45,103.45,0,0,0,716.86,400,99.48,99.48,0,0,1,721.59,383c1.37-3.58,9.18-13.74,10-14.88s5.92-7.44,1.09-14.27S719.53,353.32,719.53,353.32Z" transform="translate(0 1.02)"/><path class="cls-37" d="M737,382.33c-.44,2.94,0,6.8.95,17.55s-1.62,23.77-1.62,23.77a12.9,12.9,0,0,1-6.86,0c.08-.76,0-26.2,0-28.47s-.65-4.84-.82-7.44a52.34,52.34,0,0,0-1.87-8.39c-.28-1-.56-2-.84-3h0c-.16-.54-.31-1.08-.46-1.6-1.31-4.53-3.07-22-3.07-22s9.75-7.85,14.49-.46S739.18,365,739,366,737.42,379.39,737,382.33Z" transform="translate(0 1.02)"/><path class="cls-38" d="M732.93,366.54c-.07.17-4.93,10.94-6.18,12.81-.28-1-.56-2-.84-3h0Z" transform="translate(0 1.02)"/><path class="cls-39" d="M733.08,435.47h-.86v-3.63c-.72.06-3.12,2.34-3.87,3s-1.76.63-4.9.83-3.43-1.68-2.93-2.32,2.1-.92,2.93-1.32c3.35.18,7.45-4.53,9.41-4.52,1,0,1,.58,1.07.69h0c0,.17.07.33.12.49C734.59,430.71,733.08,435.47,733.08,435.47Z" transform="translate(0 1.02)"/><path class="cls-39" d="M707,436.24h-1s.35-3.9-.61-3.94-3.32,3.17-4.73,3.67-8.67.91-8.7-.42,2.78-1.87,3.66-2.25c3,0,7.86-3.3,9.36-4a5.47,5.47,0,0,1,3.15-.27,15.53,15.53,0,0,1,.16,1.6A29.47,29.47,0,0,1,707,436.24Z" transform="translate(0 1.02)"/><path class="cls-21" d="M728.13,312.22s1.56,4.11.35,7.29c0,0,5.7-.37,5.91-1s-.23-6.83.56-8.65S728.13,312.22,728.13,312.22Z" transform="translate(0 1.02)"/><path class="cls-40" d="M727.58,318.12s-3.37,1.2-4.89,1.53-4.71,1.84-4.45,7.52a120.63,120.63,0,0,0,1.55,13.05,51.26,51.26,0,0,1-.43,11.67,42.53,42.53,0,0,0,17.58,0s-1.68-5.14-1.64-6.48,5.62-12.29,5.88-14,1.38-9.37-1.17-11.05-4.62-1.47-5.7-2.22S729.16,317.58,727.58,318.12Z" transform="translate(0 1.02)"/><path class="cls-40" d="M740.58,360.82a47.27,47.27,0,0,1-24.78,0,34.08,34.08,0,0,0,2.27-6.11h0a36.38,36.38,0,0,0,.85-4.09h0a37.17,37.17,0,0,0-.34-13.28c1.59-13.11,21.43-17,23-12.87s-3.08,22-3.32,23.55S740.58,360.82,740.58,360.82Z" transform="translate(0 1.02)"/><path class="cls-21" d="M733.1,295.71c-2.29-.79-8.49-1.62-10.08,7.89s1.87,9.67,5.43,9.4,9.1-6.69,9.53-8.64S739.64,298,733.1,295.71Z" transform="translate(0 1.02)"/><path class="cls-41" d="M724.3,299.36s1.89,4.05,4.38,5.46c0,0,1.55,4.3,4.92,6,0,0,8.94-5.92,3.75-12.95S724.89,296.47,724.3,299.36Z" transform="translate(0 1.02)"/><path class="cls-21" d="M728.46,303.42a1.16,1.16,0,0,1,2.14.06c.6,1.35-1.56,3.74-2.15,3.62S727.69,305.3,728.46,303.42Z" transform="translate(0 1.02)"/><path class="cls-41" d="M737.05,299c.2-.3,6.11-3,7.35,2.68s-4.77,12.39-5.82,15.25.47,9.57.47,9.57-3.61-3.41-4.7-7C733.15,315.59,732.75,305.7,737.05,299Z" transform="translate(0 1.02)"/><path class="cls-42" d="M737.35,298.8a6,6,0,0,0-2.05,3.69,4.44,4.44,0,0,1,.39-2.84A1.63,1.63,0,0,1,737.35,298.8Z" transform="translate(0 1.02)"/><path class="cls-37" d="M718.07,354.73a36.38,36.38,0,0,0,.85-4.09h0s.91-1.94,1.22-2.86,2.59-12.29,2.59-12.29S725.15,346.16,718.07,354.73Z" transform="translate(0 1.02)"/><path class="cls-21" d="M707.91,355.39a13.33,13.33,0,0,1-2.36,1.95c-.57.18-1.68-.8-5.77-1.11-.36,0-1,.3-.84.77a6.3,6.3,0,0,0,2.69,2c.76.2,4.35,1.63,6.1.93a7.17,7.17,0,0,0,2.94-2.93Z" transform="translate(0 1.02)"/><path class="cls-40" d="M721.73,320s-4.72,1.88-5,8.44-.54,10-.79,11-.75,5.08-1.94,7.54-8.73,9.9-8.73,9.9l3.67,3.45s10.56-10.59,11.2-12.53,3.28-15.42,3.49-17.69C723.8,328.26,726.21,320.1,721.73,320Z" transform="translate(0 1.02)"/><circle class="cls-43" cx="633.34" cy="335.06" r="46.49" transform="translate(-29.93 65.06) rotate(-5.65)"/><path class="cls-44" d="M662.9,302.58s-57-7.07-68.35,53.08h0a43.92,43.92,0,0,1,68.35-53.08Z" transform="translate(0 1.02)"/><path class="cls-45" d="M633.34,282.52a52.55,52.55,0,1,0,52.54,52.54A52.54,52.54,0,0,0,633.34,282.52Zm0,96.53a44,44,0,1,1,44-44A44,44,0,0,1,633.34,379.05Z" transform="translate(0 1.02)"/><rect class="cls-19" x="457.07" y="180.11" width="30.46" height="3.12"/><rect class="cls-19" x="493.46" y="180.11" width="21.63" height="3.12"/><rect class="cls-19" x="493.46" y="191.85" width="20.19" height="3.12"/><rect class="cls-33" x="601.79" y="180.11" width="21.63" height="3.12"/><rect class="cls-46" x="520.91" y="180.11" width="27.55" height="3.12"/><rect class="cls-47" x="568.84" y="180.11" width="27.55" height="3.12"/><rect class="cls-19" x="553.55" y="180.11" width="10.09" height="3.12"/><rect class="cls-33" x="457.07" y="191.85" width="15.78" height="3.12"/><rect class="cls-46" x="476.72" y="191.85" width="5.09" height="3.12"/><rect class="cls-19" x="581.31" y="191.85" width="42.11" height="3.12"/><rect class="cls-48" x="485.56" y="191.85" width="5.2" height="3.12"/><rect class="cls-46" x="563.64" y="191.85" width="13.78" height="3.12"/><rect class="cls-33" x="530.68" y="191.85" width="29.31" height="3.12"/><rect class="cls-19" x="516.44" y="191.85" width="10.08" height="3.12"/><path class="cls-49" d="M606.61,121.59" transform="translate(0 1.02)"/><path class="cls-49" d="M613.12,131" transform="translate(0 1.02)"/><path class="cls-50" d="M578.07,520.51s29.72-27.19,96.79-27.19S796,476,823.06,429l-.36,90.85Z" transform="translate(0 1.02)"/></svg>